# xmcd
#
# Track frame offsets:
#	150
#	11308
#	25871
#	36760
#	53571
#	64898
#	76141
#	89395
#	97315
#	117164
#	128181
#	140337
#	155206
#	167900
#	179692
#	190854
#	201222
#	211617
#
# Disc length: 3007
#
# Revision: 1
# Processed by: cddbd v1.5.1PL0 Copyright (c) Steve Scherf et al.
# Submitted via: dBpowerAMP V4.0
# Normalized: r0:DSETVAR1,TDELIM( - )
#
DISCID=f60bbd12
DTITLE=Various Artist - Country Gentlemen
DYEAR=2001
DGENRE=Country
TTITLE0=Conway Twitty - It's OnlyMake Believe
TTITLE1=Glen Campbell - Rhinestone Cowboy
TTITLE2=Roger Miller - King of the Road
TTITLE3=Merle Haggard - Today I Started Loving You Again
TTITLE4=Willie Nelson - Touch Me
TTITLE5=Mickey Gilley - Breathless
TTITLE6=Don Williams - Where Do We Go From Here
TTITLE7=Jim Reeves - Till The End of The World
TTITLE8=Glen Campbell - Medley (Wichita Lineman, Galveston, Country Bay)
TTITLE9=Jerry Wallace - Primrose Lane
TTITLE10=Merle Haggard - Okie From Muskogee
TTITLE11=Ed Bruce - You're The Best Break (this heart ever had)
TTITLE12=Bobby Bare Bare - Tender years
TTITLE13=Conway Twitty - Linda On My Mind
TTITLE14=Hank Locklin - Let Me Be The One
TTITLE15=Willie Nelson - Blame It On The Times
TTITLE16=Frankie Lane - Rawhide
TTITLE17=Comway Twitty - Fifteen Years Ago
EXTD=
EXTT0=
EXTT1=
EXTT2=
EXTT3=
EXTT4=
EXTT5=
EXTT6=
EXTT7=
EXTT8=
EXTT9=
EXTT10=
EXTT11=
EXTT12=
EXTT13=
EXTT14=
EXTT15=
EXTT16=
EXTT17=
PLAYORDER=
